<?xml version="1.0" standalone="no"?>
<!DOCTYPE svg PUBLIC "-//W3C//DTD SVG 20010904//EN"
 "http://www.w3.org/TR/2001/REC-SVG-20010904/DTD/svg10.dtd">
<svg version="1.0" xmlns="http://www.w3.org/2000/svg"
 width="1800.000000pt" height="900.000000pt" viewBox="0 0 1800.000000 900.000000"
 preserveAspectRatio="xMidYMid meet">

<g transform="translate(0.000000,900.000000) scale(0.100000,-0.100000)"
fill="#000000" stroke="none">
<path d="M8876 8814 c-14 -14 -16 -114 -16 -954 0 -840 2 -940 16 -954 14 -14
137 -16 1209 -16 1171 0 1195 0 1205 19 7 13 10 328 10 951 0 623 -3 938 -10
951 -10 19 -34 19 -1205 19 -1072 0 -1195 -2 -1209 -16z m2359 -954 l0 -901
-1155 0 -1155 0 -3 893 c-1 491 0 898 2 903 2 7 395 9 1157 8 l1154 -2 0 -901z"/>
<path d="M6532 8768 c-17 -17 -17 -1879 0 -1896 17 -17 1349 -17 1366 0 17 17
17 1879 0 1896 -17 17 -1349 17 -1366 0z m1313 -948 l0 -895 -630 0 -630 0 -3
885 c-1 487 0 891 3 898 3 10 135 12 632 10 l628 -3 0 -895z"/>
<path d="M8038 8689 c-17 -9 -18 -40 -18 -424 0 -363 2 -416 16 -429 13 -14
58 -16 339 -16 281 0 326 2 339 16 14 13 16 66 16 429 0 399 -1 415 -19 425
-26 14 -650 13 -673 -1z m627 -424 l0 -370 -285 0 -285 0 -5 365 c-3 201 -4
368 -2 373 2 4 132 6 290 5 l287 -3 0 -370z"/>
<path d="M8082 7688 c-9 -9 -12 -108 -12 -383 0 -348 1 -373 18 -388 16 -15
52 -17 294 -17 254 0 276 1 291 18 15 17 17 58 17 388 0 275 -3 373 -12 382
-9 9 -89 12 -298 12 -209 0 -289 -3 -298 -12z m543 -383 l0 -330 -245 0 -245
0 -3 320 c-1 176 0 326 3 333 3 10 58 12 247 10 l243 -3 0 -330z"/>
<path d="M8806 6724 c-14 -14 -16 -124 -16 -1064 l0 -1048 25 -16 c22 -14 140
-16 1273 -16 1197 0 1250 1 1265 18 16 17 17 105 17 1065 0 937 -2 1047 -16
1061 -14 14 -143 16 -1274 16 -1131 0 -1260 -2 -1274 -16z m2499 -1059 l0
-1010 -1225 0 -1225 0 0 1005 0 1005 1190 5 c655 3 1206 5 1225 5 l35 0 0
-1010z"/>
<path d="M7992 6688 c-16 -16 -18 -1999 -2 -2029 10 -18 24 -19 314 -19 l304
0 16 25 c14 22 16 120 16 1013 0 945 -1 990 -18 1005 -16 15 -53 17 -318 17
-220 0 -303 -3 -312 -12z m573 -1018 l0 -965 -260 0 -260 0 -3 955 c-1 525 0
961 3 968 3 10 61 12 262 10 l258 -3 0 -965z"/>
<path d="M5450 6581 c-14 -27 -14 -1895 0 -1922 10 -19 34 -19 1200 -19 1067
0 1190 2 1204 16 14 14 16 115 16 964 0 849 -2 950 -16 964 -14 14 -137 16
-1204 16 -1166 0 -1190 0 -1200 -19z m2345 -961 l0 -915 -1145 0 -1145 0 -3
905 c-1 498 0 911 3 918 3 10 238 12 1147 10 l1143 -3 0 -915z"/>
<path d="M9787 4323 c-4 -3 -7 -441 -7 -973 0 -738 3 -969 12 -978 17 -17
3179 -17 3196 0 9 9 12 238 12 969 0 527 -3 964 -6 973 -6 15 -156 16 -1603
16 -879 0 -1601 -3 -1604 -7z m3143 -973 l0 -910 -1540 0 -1540 0 0 910 0 910
1540 0 1540 0 0 -910z"/>
<path d="M6195 4297 c-3 -6 -4 -156 -3 -332 l3 -320 575 0 575 0 0 330 0 330
-573 3 c-455 2 -574 0 -577 -11z m1085 -322 l0 -265 -510 0 -510 0 0 265 0
265 510 0 510 0 0 -265z"/>
<path d="M3531 4276 c-8 -10 -10 -395 -9 -1452 l3 -1439 1295 0 1295 0 0 1450
0 1450 -1286 3 c-1075 2 -1288 0 -1298 -12z m2519 -1441 l0 -1385 -1227 2
-1228 3 -3 1370 c-1 754 0 1376 3 1383 3 9 259 12 1230 12 l1225 0 0 -1385z"/>
<path d="M6277 3213 c-10 -9 -8 -2765 1 -2781 7 -10 235 -12 1108 -10 l1099 3
0 1395 0 1395 -1101 3 c-605 1 -1104 -1 -1107 -5z m2127 -59 c14 -6 16 -132
16 -1335 l0 -1329 -1040 0 -1040 0 0 1329 c0 1054 3 1330 13 1334 18 8 2032 8
2051 1z"/>
<path d="M8555 2328 c-3 -7 -4 -425 -3 -928 l3 -915 1140 0 1140 0 0 925 0
925 -1138 3 c-905 2 -1139 0 -1142 -10z m2215 -918 l0 -860 -1075 0 -1075 0 0
860 0 860 1075 0 1075 0 0 -860z"/>
<path d="M10951 2276 c-8 -10 -10 -250 -9 -887 l3 -874 1044 -3 c829 -2 1046
0 1053 10 4 7 8 402 8 878 0 661 -3 869 -12 878 -19 19 -2071 17 -2087 -2z
m2029 -881 l0 -815 -985 0 -985 0 0 815 0 815 985 0 985 0 0 -815z"/>
<path d="M3506 1294 c-3 -9 -6 -201 -6 -428 0 -307 3 -415 12 -424 17 -17
2619 -17 2636 0 9 9 12 117 12 424 0 227 -3 419 -6 428 -6 14 -132 16 -1324
16 -1192 0 -1318 -2 -1324 -16z m2579 -424 l0 -365 -1255 0 -1255 0 -3 355
c-1 195 0 361 3 367 3 11 257 13 1257 11 l1253 -3 0 -365z"/>
</g>
</svg>
